<?xml version="1.0" encoding="iso-8859-1"?>
<!-- Generator: Adobe Illustrator 19.0.0, SVG Export Plug-In . SVG Version: 6.00 Build 0)  -->
<svg version="1.1" id="Capa_1" xmlns="http://www.w3.org/2000/svg" xmlns:xlink="http://www.w3.org/1999/xlink" x="0px" y="0px"
	 viewBox="0 0 512.001 512.001" style="enable-background:new 0 0 512.001 512.001;" xml:space="preserve">
<g>
	<g>
		<path d="M115.37,223.438h-8.335c-4.146,0-7.508,3.36-7.508,7.508v45.518c0,4.147,3.362,7.508,7.508,7.508h8.118
			c18.78,0,30.916-11.883,30.916-30.273C146.07,235.598,133.732,223.438,115.37,223.438z M114.543,268.955v-30.503
			c11.368,0,16.511,5.561,16.511,15.245C131.054,263.659,125.78,268.955,114.543,268.955z"/>
	</g>
</g>
<g>
	<g>
		<path d="M445.854,268.429h-29.643v-68.214c0-4.147-3.36-7.508-7.508-7.508H371.33c-4.147,0-7.508,3.361-7.508,7.508v68.575
			c-1.618-0.551,0.126-0.399-32.094-0.399v-68.175c0-4.147-3.36-7.508-7.508-7.508h-37.342c-4.147,0-7.508,3.36-7.508,7.508v21.719
			l-18.596-14.623c-2.029-1.596-4.677-2.001-7.021-1.22c0.213-2.488-0.835-4.955-2.839-6.531l-20.818-16.371
			c-2.722-2.14-6.556-2.143-9.281-0.001l-49.03,38.531c-9.68-15.511-28.161-29.013-52.689-29.013h-48
			c-4.146,0-7.508,3.36-7.508,7.508v106.993c0,4.147,3.361,7.508,7.508,7.508h48c21.866,0,41.641-11.127,52.7-29.014
			c53.092,41.753,50.077,40.155,53.658,40.155c3.582,0,0.536,1.623,53.917-40.367v21.745c0,4.147,3.36,7.508,7.508,7.508
			c80.882,0,76.554,0.709,79.484-1.877c2.951,2.604-1.312,1.877,79.49,1.877c4.147,0,7.508-3.36,7.508-7.508v-31.297
			C453.362,271.789,450.002,268.429,445.854,268.429z M353.891,299.726h-59.503V270.03c0-2.875-1.642-5.497-4.228-6.753
			s-5.661-0.925-7.921,0.853l-56.784,44.665l-51.521-40.519c-3.905-3.072-9.67-1.562-11.575,3.022
			c-7.167,17.252-24.149,28.401-43.261,28.401H78.606v-91.977h40.492c22.038,0,37.575,14.218,43.196,28.308
			c1.861,4.664,7.687,6.207,11.613,3.12l51.547-40.51l8.674,6.821l-43.944,34.558c-3.819,3.004-3.818,8.796-0.004,11.8l9.849,7.756
			c2.724,2.144,6.561,2.145,9.286,0.003l46.821-36.815l8.671,6.82l-43.947,34.546c-1.811,1.423-2.868,3.6-2.868,5.902
			c0,4.639,2.749,5.809,12.736,13.659c2.722,2.14,6.553,2.14,9.277,0.002l51.511-40.447c1.813-1.423,2.871-3.6,2.871-5.904v-29.618
			h22.326v68.175c0,4.147,3.36,7.508,7.508,7.508h29.67V299.726z M438.348,299.725h-59.509v-92.003h22.358v68.214
			c0,4.147,3.36,7.508,7.508,7.508h29.643V299.725z"/>
	</g>
</g>
<g>
	<g>
		<path d="M418.424,93.485c-89.636-89.633-234.707-89.646-324.349,0c-89.63,89.634-89.642,234.699,0,324.339
			c89.632,89.63,234.706,89.635,324.349,0C508.059,328.196,508.065,183.126,418.424,93.485z M256.241,469.98
			c-118.179,0-214.324-96.146-214.324-214.324c0-118.183,96.146-214.33,214.324-214.33c118.19,0,214.342,96.149,214.342,214.33
			C470.583,373.834,374.429,469.98,256.241,469.98z"/>
	</g>
</g>
<g>
	<g>
		<path d="M504.957,263.746c-4.178-0.268-7.701,2.892-7.956,7.029c-7.84,126.802-113.595,226.13-240.76,226.13
			c-133.012,0-241.225-108.224-241.225-241.25c0-126.181,98.497-231.875,224.238-240.622c4.136-0.287,7.257-3.874,6.968-8.01
			c-0.287-4.136-3.873-7.268-8.01-6.968C104.662,9.344,0,120.588,0,255.655c0,68.451,26.655,132.805,75.055,181.209
			c98.721,98.726,256.825,99.752,357.005,5.219c47.521-44.843,75.906-105.352,79.926-170.382
			C512.242,267.563,509.094,264.001,504.957,263.746z"/>
	</g>
</g>
<g>
	<g>
		<path d="M511.725,235.624C501.953,109.302,400.581,8.848,274.289,0.056c-4.129-0.291-7.723,2.832-8.01,6.968
			c-0.288,4.136,2.831,7.723,6.968,8.01c118.277,8.234,214.362,103.564,223.507,221.746c0.305,3.938,3.594,6.929,7.478,6.929
			C508.632,243.71,512.061,239.969,511.725,235.624z"/>
	</g>
</g>
<g>
</g>
<g>
</g>
<g>
</g>
<g>
</g>
<g>
</g>
<g>
</g>
<g>
</g>
<g>
</g>
<g>
</g>
<g>
</g>
<g>
</g>
<g>
</g>
<g>
</g>
<g>
</g>
<g>
</g>
</svg>
