<?xml version="1.0" encoding="UTF-8" standalone="no"?>
<!DOCTYPE svg PUBLIC "-//W3C//DTD SVG 1.1//EN" "http://www.w3.org/Graphics/SVG/1.1/DTD/svg11.dtd">
<svg width="100%" height="100%" viewBox="0 0 881 217" version="1.1" xmlns="http://www.w3.org/2000/svg" xmlns:xlink="http://www.w3.org/1999/xlink" xml:space="preserve" xmlns:serif="http://www.serif.com/" style="fill-rule:evenodd;clip-rule:evenodd;stroke-linejoin:round;stroke-miterlimit:1.41421;">
    <g id="Layer-1" serif:id="Layer 1">
        <g transform="matrix(1,0,0,1,124.059,8.0001)">
            <path d="M0,99.925L40.493,57.931L94.172,57.23C76.49,23.234 40.969,0 0,0C-40.973,0 -76.496,23.238 -94.177,57.239L-42.266,57.931L0,99.925Z" style="fill:rgb(34,34,34);fill-rule:nonzero;"/>
        </g>
        <g transform="matrix(-0.952181,0.305535,0.305535,0.952181,131.466,192.478)">
            <path d="M58.215,-151.825C69.753,-140.28 78.812,-125.915 84.142,-109.305C96.691,-70.196 85.332,-29.167 58.215,-1.944L-2.055,-33.067L58.215,-151.825Z" style="fill:rgb(34,34,34);fill-rule:nonzero;"/>
        </g>
        <g transform="matrix(1,0,0,1,230.167,160.142)">
            <path d="M0,-46.034C0,-63.659 -4.322,-80.265 -11.926,-94.892L-106.847,0.222L-58.635,48.858C-23.875,31.432 0,-4.503 0,-46.034" style="fill:rgb(34,34,34);fill-rule:nonzero;"/>
        </g>
        <g transform="matrix(1,0,0,1,314.485,162)">
            <path d="M0,-96.582L-25.006,-96.398L11.712,0L33.919,0L70.189,-96.393L46.251,-96.461L22.617,-32.082L0,-96.582Z" style="fill:rgb(34,34,34);fill-rule:nonzero;"/>
        </g>
        <g transform="matrix(1,0,0,1,403,162)">
            <path d="M0,-97L0,0L70,0L70,-20L22,-20L22,-40L61,-40L61,-59L22,-59L22,-76L70,-76L70,-97L0,-97Z" style="fill:rgb(34,34,34);fill-rule:nonzero;"/>
        </g>
        <g transform="matrix(1,0,0,1,749.763,162)">
            <path d="M0,-96.582L-25.006,-96.398L11.712,0L33.919,0L70.189,-96.393L46.251,-96.461L22.617,-32.082L0,-96.582Z" style="fill:rgb(34,34,34);fill-rule:nonzero;"/>
        </g>
        <g transform="matrix(1,0,0,1,0,10)">
            <rect x="615" y="55" width="24" height="97" style="fill:rgb(34,34,34);"/>
        </g>
        <g transform="matrix(-1,-0,-0,1,1254,-66)">
            <rect x="586" y="131" width="82" height="21" style="fill:rgb(34,34,34);"/>
        </g>
        <g transform="matrix(1,0,0,1,0,10)">
            <rect x="685" y="55" width="22" height="97" style="fill:rgb(34,34,34);"/>
        </g>
        <g transform="matrix(1,0,0,1,0,94)">
            <rect x="813" y="54" width="2" height="15" style="fill:rgb(34,34,34);"/>
        </g>
        <g transform="matrix(1,0,0,1,0,93)">
            <rect x="822" y="54" width="2" height="16" style="fill:rgb(34,34,34);"/>
        </g>
        <g transform="matrix(1,0,0,1,822.181,163)">
            <path d="M0,-16L5.735,0L6.976,0L7.571,-2.306L2.584,-16L0,-16Z" style="fill:rgb(34,34,34);fill-rule:nonzero;"/>
        </g>
        <g transform="matrix(1,0,0,1,835.387,163)">
            <path d="M0,-16L-5.735,0L-6.914,0L-7.571,-2.306L-2.584,-16L0,-16Z" style="fill:rgb(34,34,34);fill-rule:nonzero;"/>
        </g>
        <g transform="matrix(1,0,0,1,0,93)">
            <rect x="833" y="54" width="2" height="16" style="fill:rgb(34,34,34);"/>
        </g>
        <g transform="matrix(-1,-0,-0,1,1629,79)">
            <rect x="808" y="68" width="13" height="2" style="fill:rgb(34,34,34);"/>
        </g>
        <g transform="matrix(1,0,0,1,0,10)">
            <rect x="498" y="55" width="22" height="97" style="fill:rgb(34,34,34);"/>
        </g>
        <g transform="matrix(1,0,0,1,520.054,129.591)">
            <path d="M0,-64.677L18.51,-64.677C20.812,-64.677 24.388,-64.34 24.907,-64.251C29.929,-63.394 53.492,-58.115 53.492,-31.609C53.492,-4.364 25.98,-0.483 21.772,-0.049C21.457,-0.016 21.144,0 20.827,0L0,0C-5.103,0 -5.103,-18.479 0,-18.479L19.245,-18.479C20.675,-18.479 22.084,-18.806 23.363,-19.446C26.338,-20.936 30.961,-24.409 30.961,-31.609C30.961,-39.856 24.262,-42.626 21.271,-43.452C20.493,-43.667 19.688,-43.767 18.881,-43.767L0,-43.767C-5.103,-43.767 -5.103,-64.677 0,-64.677" style="fill:rgb(34,34,34);fill-rule:nonzero;"/>
        </g>
        <g transform="matrix(0.576338,0.817212,0.817212,-0.576338,547.876,113.665)">
            <path d="M1.653,-24.304L42.006,-24.304L56.574,-3.647L1.67,-3.699L1.653,-24.304Z" style="fill:rgb(34,34,34);fill-rule:nonzero;"/>
        </g>
    </g>
</svg>
